<svg width="25" height="26" viewBox="0 0 25 26" fill="none" xmlns="http://www.w3.org/2000/svg">
<path d="M11.2607 12.9131V18.1338C11.2607 18.4053 11.3685 18.6657 11.5605 18.8577C11.7525 19.0497 12.0129 19.1575 12.2844 19.1575C12.5558 19.1575 12.8162 19.0497 13.0082 18.8577C13.2002 18.6657 13.308 18.4053 13.308 18.1338V12.9131C14.5508 12.6594 15.6551 11.9533 16.4069 10.9317C17.1586 9.91007 17.5043 8.6457 17.3768 7.38371C17.2493 6.12172 16.6578 4.95203 15.7169 4.10139C14.776 3.25076 13.5528 2.77979 12.2844 2.77979C11.0159 2.77979 9.79271 3.25076 8.85182 4.10139C7.91092 4.95203 7.31939 6.12172 7.1919 7.38371C7.06442 8.6457 7.41006 9.91007 8.16182 10.9317C8.91358 11.9533 10.0179 12.6594 11.2607 12.9131ZM12.2844 4.82609C12.8917 4.82609 13.4855 5.0062 13.9905 5.34365C14.4955 5.6811 14.8892 6.16072 15.1216 6.72188C15.354 7.28304 15.4149 7.90052 15.2964 8.49624C15.1779 9.09196 14.8854 9.63916 14.4559 10.0686C14.0264 10.4981 13.4792 10.7906 12.8835 10.9091C12.2878 11.0276 11.6703 10.9668 11.1091 10.7344C10.548 10.5019 10.0683 10.1083 9.73089 9.60328C9.39344 9.09825 9.21333 8.5045 9.21333 7.89711C9.21333 7.08262 9.53688 6.3015 10.1128 5.72557C10.6887 5.14964 11.4699 4.82609 12.2844 4.82609ZM16.594 15.4928C16.4596 15.4645 16.3209 15.4631 16.1859 15.4884C16.0509 15.5138 15.9222 15.5655 15.8072 15.6406C15.6922 15.7157 15.5931 15.8127 15.5156 15.9261C15.438 16.0395 15.3836 16.167 15.3554 16.3015C15.3271 16.4359 15.3257 16.5746 15.351 16.7096C15.3764 16.8446 15.4281 16.9733 15.5032 17.0883C15.5783 17.2033 15.6753 17.3024 15.7887 17.3799C15.9021 17.4575 16.0296 17.5119 16.1641 17.5401C18.4878 18.0008 19.4501 18.8299 19.4501 19.1575C19.4501 19.7512 16.9421 21.2049 12.2844 21.2049C7.62664 21.2049 5.11864 19.7512 5.11864 19.1575C5.11864 18.8299 6.08089 18.0008 8.40463 17.4992C8.53906 17.4709 8.66661 17.4165 8.78001 17.339C8.8934 17.2615 8.99042 17.1624 9.06551 17.0473C9.14061 16.9323 9.19231 16.8036 9.21767 16.6686C9.24304 16.5336 9.24156 16.395 9.21333 16.2605C9.1851 16.1261 9.13067 15.9985 9.05314 15.8851C8.97562 15.7717 8.87652 15.6747 8.7615 15.5996C8.64648 15.5245 8.51779 15.4728 8.38279 15.4475C8.24779 15.4221 8.10912 15.4236 7.97469 15.4518C4.86272 16.1684 3.07129 17.5094 3.07129 19.1575C3.07129 21.8498 7.70853 23.2522 12.2844 23.2522C16.8602 23.2522 21.4974 21.8498 21.4974 19.1575C21.4974 17.5094 19.706 16.1684 16.594 15.4928Z" fill="black"/>
</svg>
