<svg width="24" height="24" viewBox="0 0 24 24" fill="none" xmlns="http://www.w3.org/2000/svg">
<g clip-path="url(#clip0_5125_1420)">
<path d="M5.58637 9.58921C5.58637 11.6619 7.34589 13.3481 9.50871 13.3481C10.0186 13.3481 10.4316 13.7441 10.4316 14.2325C10.4316 14.7211 10.0186 15.117 9.50871 15.117C6.32814 15.117 3.74052 12.6372 3.74052 9.58921C3.74052 6.54104 6.32814 4.06127 9.50871 4.06127C12.6895 4.06127 15.2771 6.54104 15.2771 9.58921C15.2771 10.0777 14.8638 10.4737 14.3541 10.4737C13.8445 10.4737 13.4312 10.0777 13.4312 9.58921C13.4312 7.51653 11.6715 5.83018 9.50871 5.83018C7.34589 5.83018 5.58637 7.51653 5.58637 9.58921ZM6.31152 17.4121C3.94317 14.9268 1.89793 12.7802 1.89468 9.58056C1.89955 5.5619 5.31527 2.29235 9.50871 2.29235C13.7023 2.29235 17.1179 5.5619 17.1227 9.58056C17.1235 10.0688 17.5365 10.4641 18.0457 10.464H18.0467C18.5564 10.4635 18.9693 10.0669 18.9686 9.57848C18.9657 7.15912 17.9805 4.88514 16.1942 3.17525C14.408 1.46519 12.0337 0.523438 9.50871 0.523438C6.98394 0.523438 4.60962 1.46519 2.8232 3.17525C1.03713 4.88514 0.0517179 7.15912 0.0488281 9.58038C0.0506342 11.3429 0.561403 12.9965 1.61057 14.6358C2.51887 16.0553 3.69898 17.2937 4.94845 18.605C6.17336 19.8906 7.44017 21.2199 8.45177 22.7538C8.62732 23.02 8.9266 23.1657 9.23273 23.1657C9.40142 23.1657 9.57192 23.1216 9.72508 23.0288C10.1558 22.7678 10.2844 22.2215 10.0121 21.8086C8.91323 20.1426 7.59061 18.7545 6.31152 17.4121ZM23.4338 17.8365C23.2518 18.0274 23.0025 18.1241 22.7526 18.1241C22.5301 18.1241 22.307 18.0476 22.13 17.8926L22.0144 17.7913V20.718C22.0144 22.0921 20.8487 23.2099 19.4161 23.2099H14.2297C12.7971 23.2099 11.6314 22.0921 11.6314 20.718V17.8318L11.5621 17.8926C11.1859 18.2223 10.6021 18.1972 10.2581 17.8366C9.91418 17.4761 9.94037 16.9165 10.3166 16.587L15.0802 12.4132C16.0869 11.5314 17.6052 11.5314 18.6117 12.4132L21.6638 15.0876C21.6976 15.1132 21.7294 15.141 21.759 15.1708L23.3755 16.587C23.7517 16.9165 23.7779 17.4761 23.4338 17.8365ZM20.1686 16.174L17.3662 13.7188C17.0696 13.459 16.6224 13.459 16.3259 13.7188L13.4773 16.2143V20.718C13.4773 21.1166 13.8148 21.4409 14.2299 21.4409H19.4161C19.831 21.4409 20.1686 21.1166 20.1686 20.718V16.174Z" fill="white"/>
</g>
<defs>
<clipPath id="clip0_5125_1420">
<rect width="23.6731" height="22.6865" fill="white" transform="translate(0.00341797 0.523438)"/>
</clipPath>
</defs>
</svg>
