<svg width="23" height="22" viewBox="0 0 23 22" fill="none" xmlns="http://www.w3.org/2000/svg">
<g clip-path="url(#clip0_5125_1434)">
<path d="M11.5444 0.624023C5.71715 0.624023 0.976074 5.33577 0.976074 11.127C0.976074 16.9183 5.71715 21.63 11.5444 21.63C17.3717 21.63 22.1128 16.9183 22.1128 11.127C22.1128 5.33577 17.3717 0.624023 11.5444 0.624023ZM11.5444 20.3171C6.44538 20.3171 2.29713 16.1945 2.29713 11.127C2.29713 6.0595 6.44538 1.9369 11.5444 1.9369C16.6435 1.9369 20.7918 6.0595 20.7918 11.127C20.7918 16.1945 16.6435 20.3171 11.5444 20.3171Z" fill="white"/>
<path d="M12.2044 4.56152H10.8833V11.3977L15.0399 15.5286L15.974 14.6004L12.2044 10.8541V4.56152Z" fill="white"/>
</g>
<defs>
<clipPath id="clip0_5125_1434">
<rect width="21.1367" height="21.006" fill="white" transform="translate(0.976074 0.624023)"/>
</clipPath>
</defs>
</svg>
