<svg width="19" height="20" viewBox="0 0 19 20" fill="none" xmlns="http://www.w3.org/2000/svg">
<path d="M14.6573 3.69482H3.90873C3.29787 3.69482 2.71203 3.93749 2.28008 4.36944C1.84813 4.80138 1.60547 5.38723 1.60547 5.99809V13.6756C1.60547 14.2865 1.84813 14.8724 2.28008 15.3043C2.71203 15.7362 3.29787 15.9789 3.90873 15.9789H14.6573C15.2682 15.9789 15.854 15.7362 16.286 15.3043C16.7179 14.8724 16.9606 14.2865 16.9606 13.6756V5.99809C16.9606 5.38723 16.7179 4.80138 16.286 4.36944C15.854 3.93749 15.2682 3.69482 14.6573 3.69482ZM3.90873 5.23033H14.6573C14.8609 5.23033 15.0562 5.31122 15.2002 5.45521C15.3442 5.59919 15.4251 5.79447 15.4251 5.99809L9.28302 9.74474L3.14098 5.99809C3.14098 5.79447 3.22187 5.59919 3.36585 5.45521C3.50983 5.31122 3.70511 5.23033 3.90873 5.23033ZM15.4251 13.6756C15.4251 13.8793 15.3442 14.0745 15.2002 14.2185C15.0562 14.3625 14.8609 14.4434 14.6573 14.4434H3.90873C3.70511 14.4434 3.50983 14.3625 3.36585 14.2185C3.22187 14.0745 3.14098 13.8793 3.14098 13.6756V7.74857L8.88379 11.2572C9.0005 11.3246 9.1329 11.3601 9.26767 11.3601C9.40244 11.3601 9.53483 11.3246 9.65154 11.2572L15.4251 7.74857V13.6756Z" fill="#555555"/>
</svg>
