<svg width="27" height="27" viewBox="0 0 27 27" fill="none" xmlns="http://www.w3.org/2000/svg">
<path d="M17.7396 8.55469H15.7422V10.6124H17.7396V8.55469Z" fill="black"/>
<path d="M16.5195 13.2688C16.5195 15.0967 15.0322 16.5841 13.2043 16.5841C11.3761 16.5841 9.88879 15.0967 9.88879 13.2688C9.88879 12.7741 10.0008 12.3059 10.1958 11.8838H8.00488V17.5747C8.00488 18.0913 8.4252 18.5116 8.9418 18.5116H17.4668C17.9834 18.5116 18.4037 18.0913 18.4037 17.5747V11.884H16.2125C16.4076 12.3061 16.5195 12.7741 16.5195 13.2688Z" fill="black"/>
<path d="M13.2043 15.2405C14.2913 15.2405 15.176 14.356 15.176 13.2688C15.176 12.7293 14.9579 12.2403 14.6057 11.8838H11.8025C11.4505 12.2401 11.2324 12.7293 11.2324 13.2688C11.2324 14.356 12.1169 15.2405 13.2043 15.2405Z" fill="black"/>
<path d="M13.2063 0.339355C6.05404 0.339355 0.255859 6.13776 0.255859 13.29C0.255859 20.4421 6.05404 26.2412 13.2063 26.2412C20.3586 26.2412 26.1572 20.4423 26.1572 13.29C26.157 6.13776 20.3586 0.339355 13.2063 0.339355ZM19.7493 17.5738C19.7493 18.8312 18.7264 19.8543 17.4688 19.8543H8.94384C7.68648 19.8543 6.66335 18.8314 6.66335 17.5738V9.00965C6.66335 7.75229 7.68626 6.72916 8.94384 6.72916H17.4688C18.7262 6.72916 19.7493 7.75206 19.7493 9.00965V17.5738Z" fill="black"/>
</svg>
