<svg width="22" height="23" viewBox="0 0 22 23" fill="none" xmlns="http://www.w3.org/2000/svg">
<g clip-path="url(#clip0_5125_1425)">
<path d="M9.13301 13.7415C7.19625 11.6563 6.75893 9.57113 6.66028 8.7357C6.63271 8.5047 6.70654 8.27304 6.86004 8.10894L8.42736 6.42226C8.65792 6.17419 8.69883 5.78758 8.52602 5.49003L6.03055 1.31815C5.83936 0.988669 5.4468 0.869755 5.12409 1.04357L1.11796 3.07489C0.856996 3.21324 0.703499 3.51176 0.733129 3.82331C0.943038 5.97027 1.81241 11.248 6.62984 16.435C11.4473 21.622 16.3487 22.5576 18.3438 22.7836C18.6332 22.8155 18.9105 22.6502 19.039 22.3692L20.9257 18.0561C21.0866 17.7094 20.9768 17.2879 20.6721 17.0817L16.7972 14.3958C16.5209 14.2095 16.1619 14.2532 15.9313 14.5012L14.3647 16.1886C14.2122 16.3539 13.9971 16.4334 13.7825 16.4037C13.0065 16.2975 11.0698 15.8267 9.13301 13.7415Z" fill="white"/>
<path d="M16.8219 12.6198C16.4355 12.6198 16.1222 12.2825 16.1222 11.8665C16.119 8.7476 13.7714 6.22013 10.8745 6.2166C10.4881 6.2166 10.1748 5.87933 10.1748 5.46328C10.1748 5.04723 10.4881 4.70996 10.8745 4.70996C14.5439 4.71432 17.5176 7.91585 17.5216 11.8665C17.5216 12.2825 17.2084 12.6198 16.8219 12.6198Z" fill="white"/>
<path d="M20.3204 12.6188C19.934 12.6188 19.6207 12.2815 19.6207 11.8655C19.6153 6.66733 15.7027 2.45483 10.8745 2.44902C10.4881 2.44902 10.1748 2.11175 10.1748 1.6957C10.1748 1.27965 10.4881 0.942383 10.8745 0.942383C16.4752 0.949026 21.014 5.83558 21.0201 11.8655C21.0201 12.0653 20.9464 12.2569 20.8152 12.3982C20.684 12.5394 20.506 12.6188 20.3204 12.6188Z" fill="white"/>
</g>
<defs>
<clipPath id="clip0_5125_1425">
<rect width="20.2913" height="21.8462" fill="white" transform="translate(0.728516 0.942383)"/>
</clipPath>
</defs>
</svg>
