<svg width="19" height="20" viewBox="0 0 19 20" fill="none" xmlns="http://www.w3.org/2000/svg">
<path d="M15.4371 10.9004C15.2682 10.9004 15.0917 10.8466 14.9227 10.8083C14.581 10.7318 14.2449 10.6318 13.917 10.5088C13.5608 10.3793 13.1693 10.386 12.8178 10.5277C12.4663 10.6695 12.1796 10.9362 12.013 11.2766L11.844 11.6298C11.0984 11.2069 10.4096 10.6909 9.79414 10.0942C9.19748 9.47879 8.68151 8.78996 8.25863 8.04434L8.6118 7.88311C8.95219 7.71644 9.21892 7.42977 9.36066 7.07826C9.5024 6.72676 9.50913 6.33525 9.37955 5.97907C9.25762 5.6482 9.1576 5.30965 9.08013 4.96564C9.04174 4.79673 9.01103 4.62015 8.988 4.45124C8.89477 3.91045 8.61151 3.42072 8.18924 3.07023C7.76697 2.71975 7.23344 2.53155 6.68473 2.53953H4.37379C4.04922 2.53911 3.72822 2.60728 3.43184 2.7396C3.13547 2.87191 2.8704 3.06537 2.65402 3.30729C2.43315 3.55577 2.26869 3.84913 2.17195 4.1672C2.0752 4.48527 2.04846 4.82051 2.09356 5.1499C2.5109 8.3454 3.97088 11.3139 6.24711 13.5952C8.52838 15.8714 11.4969 17.3314 14.6924 17.7488C14.7921 17.7564 14.8922 17.7564 14.9918 17.7488C15.558 17.7496 16.1046 17.5419 16.5274 17.1653C16.7693 16.9489 16.9627 16.6838 17.095 16.3874C17.2274 16.0911 17.2955 15.7701 17.2951 15.4455V13.1422C17.291 12.6117 17.1038 12.0989 16.7653 11.6905C16.4268 11.282 15.9576 11.0029 15.4371 10.9004ZM15.8133 15.5069C15.8131 15.6141 15.7904 15.72 15.7468 15.8178C15.7031 15.9156 15.6395 16.0033 15.56 16.0751C15.4758 16.1517 15.3757 16.2087 15.2668 16.2419C15.1579 16.2751 15.043 16.2837 14.9304 16.267C12.0654 15.8928 9.40278 14.5871 7.35268 12.5511C5.30083 10.4992 3.98379 7.82734 3.60603 4.95028C3.58935 4.83768 3.59792 4.72278 3.63112 4.61389C3.66432 4.50501 3.72131 4.40487 3.79797 4.32072C3.87062 4.24023 3.95949 4.17603 4.05874 4.13236C4.15799 4.08869 4.26536 4.06654 4.37379 4.06736H6.67705C6.85453 4.06303 7.02803 4.12033 7.16801 4.22951C7.30799 4.3387 7.40581 4.49302 7.44481 4.66621C7.44481 4.87351 7.51391 5.08848 7.55997 5.29577C7.64871 5.69797 7.76674 6.09314 7.91314 6.47812L6.83828 6.98483C6.65353 7.06964 6.50996 7.22426 6.43905 7.41478C6.36226 7.6017 6.36226 7.81135 6.43905 7.99827C7.544 10.3651 9.44654 12.2676 11.8133 13.3726C12.0003 13.4493 12.2099 13.4493 12.3968 13.3726C12.5873 13.3016 12.742 13.1581 12.8268 12.9733L13.3105 11.8985C13.7066 12.0429 14.1118 12.1609 14.5235 12.2516C14.7231 12.2977 14.9381 12.3361 15.1454 12.3668C15.3186 12.4058 15.4729 12.5036 15.5821 12.6436C15.6913 12.7836 15.7486 12.9571 15.7442 13.1346L15.8133 15.5069ZM11.2836 2.45508C11.107 2.45508 10.9227 2.45508 10.7462 2.45508C10.5425 2.47239 10.3541 2.56987 10.2224 2.72609C10.0906 2.88231 10.0264 3.08447 10.0437 3.28809C10.061 3.49171 10.1585 3.68012 10.3147 3.81186C10.4709 3.94361 10.6731 4.0079 10.8767 3.99059H11.2836C12.5053 3.99059 13.677 4.47592 14.5409 5.33981C15.4048 6.2037 15.8901 7.37539 15.8901 8.59712C15.8901 8.73532 15.8901 8.86583 15.8901 9.00403C15.8731 9.20657 15.9371 9.4076 16.0681 9.56303C16.199 9.71847 16.3863 9.81563 16.5888 9.83321H16.6502C16.8424 9.83399 17.0279 9.76265 17.17 9.63329C17.3122 9.50394 17.4007 9.32597 17.418 9.13455C17.418 8.95796 17.418 8.7737 17.418 8.59712C17.418 6.96948 16.7719 5.40839 15.6217 4.25675C14.4715 3.10512 12.9112 2.45711 11.2836 2.45508ZM12.8191 8.59712C12.8191 8.80074 12.9 8.99602 13.044 9.14001C13.1879 9.28399 13.3832 9.36488 13.5869 9.36488C13.7905 9.36488 13.9858 9.28399 14.1297 9.14001C14.2737 8.99602 14.3546 8.80074 14.3546 8.59712C14.3546 7.78263 14.0311 7.00151 13.4551 6.42558C12.8792 5.84965 12.0981 5.5261 11.2836 5.5261C11.08 5.5261 10.8847 5.60699 10.7407 5.75097C10.5967 5.89495 10.5158 6.09023 10.5158 6.29385C10.5158 6.49748 10.5967 6.69276 10.7407 6.83674C10.8847 6.98072 11.08 7.06161 11.2836 7.06161C11.6908 7.06161 12.0814 7.22339 12.3694 7.51135C12.6573 7.79931 12.8191 8.18988 12.8191 8.59712Z" fill="#555555"/>
</svg>
