<svg width="26" height="26" viewBox="0 0 26 26" fill="none" xmlns="http://www.w3.org/2000/svg">
<path d="M13.2469 0.470703C6.46246 0.470703 0.962891 5.97065 0.962891 12.7548C0.962891 19.5387 6.46268 25.0389 13.2469 25.0389C20.0311 25.0389 25.5311 19.5387 25.5311 12.7548C25.5311 5.97065 20.0311 0.470703 13.2469 0.470703ZM19.0975 11.3402C18.9514 13.0885 17.6725 15.1284 16.4911 15.7112C15.3093 16.2941 14.0464 16.2941 13.318 15.9379C13.318 15.9379 12.379 15.3712 12.2496 15.2091C12.1687 15.2739 11.9096 16.8767 11.5211 17.8803C11.1326 18.8839 10.5984 19.8715 9.83736 20.3248C9.56229 19.4183 9.74029 17.1842 10.2745 15.2091C10.8091 13.2342 11.0194 12.3113 11.0194 12.3113C11.0194 12.3113 10.3395 11.0161 11.0032 9.59169C11.667 8.16711 12.9134 8.49081 13.1564 8.71744C13.3994 8.94408 13.8363 9.12207 13.4801 10.5792C13.1239 12.0362 12.5249 13.4608 13.0268 14.238C13.3342 14.6751 14.9695 15.0311 15.8919 13.8009C16.6368 12.5543 16.9285 11.9878 16.9608 10.0288C16.9608 10.0288 16.9956 6.8859 14.1921 6.6941C11.8286 6.53203 10.7371 7.54179 10.0156 8.24803C9.25473 8.99272 8.68825 11.0322 9.40044 12.1656C9.75664 12.6673 9.77279 12.9587 9.72414 13.2501C9.6755 13.5415 9.44887 13.9787 9.44887 13.9787C9.44887 13.9787 7.44165 13.6227 7.34458 11.1618C7.2473 8.70109 8.39662 7.29265 9.41658 6.51568C10.4368 5.73871 12.2065 4.74573 15.7033 5.39334C18.0128 6.01972 19.4697 8.00547 19.0975 11.3402Z" fill="black"/>
</svg>
