<svg width="26" height="26" viewBox="0 0 26 26" fill="none" xmlns="http://www.w3.org/2000/svg">
<path d="M13.1874 0.470703C6.40309 0.470703 0.90332 5.97047 0.90332 12.7548C0.90332 19.5391 6.40309 25.0389 13.1874 25.0389C19.9717 25.0389 25.4715 19.5391 25.4715 12.7548C25.4715 5.97047 19.9717 0.470703 13.1874 0.470703ZM19.7307 16.9247H18.172C18.0031 16.9249 17.8364 16.887 17.6843 16.8139C17.5321 16.7408 17.3983 16.6343 17.293 16.5024C16.8255 15.9155 15.9046 14.8748 14.9376 14.4279C14.8816 14.4017 14.8199 14.39 14.7582 14.3939C14.6965 14.3979 14.6368 14.4173 14.5846 14.4504C14.5324 14.4836 14.4894 14.5293 14.4595 14.5835C14.4297 14.6377 14.414 14.6985 14.4138 14.7603V16.302C14.4139 16.3837 14.3978 16.4647 14.3665 16.5402C14.3352 16.6158 14.2894 16.6844 14.2316 16.7423C14.1737 16.8001 14.1051 16.846 14.0296 16.8773C13.954 16.9086 13.8731 16.9247 13.7913 16.9247H13.0705C12.1332 16.9247 10.1147 16.3541 8.50626 14.0111C7.13581 12.0149 6.52492 10.4679 6.16868 9.21356C6.14797 9.14005 6.14458 9.06273 6.15878 8.98769C6.17297 8.91264 6.20436 8.84191 6.25049 8.78103C6.29662 8.72016 6.35623 8.67081 6.42465 8.63685C6.49306 8.60289 6.56841 8.58524 6.64479 8.5853H8.22166C8.37898 8.58517 8.53214 8.63581 8.65837 8.72971C8.78459 8.82361 8.87714 8.95575 8.92224 9.10646C9.21547 10.0872 9.97497 12.2029 11.3175 13.2565C11.3584 13.2887 11.4076 13.3088 11.4594 13.3145C11.5112 13.3201 11.5636 13.311 11.6105 13.2883C11.6574 13.2656 11.697 13.2301 11.7247 13.1859C11.7524 13.1418 11.7671 13.0907 11.7672 13.0386V10.569C11.7672 10.081 11.5556 9.59269 11.2255 9.21107C11.1779 9.15634 11.1471 9.08908 11.1367 9.01731C11.1263 8.94554 11.1368 8.87229 11.1668 8.80631C11.1969 8.74032 11.2453 8.68438 11.3063 8.64515C11.3673 8.60592 11.4383 8.58506 11.5108 8.58506H13.942C14.0672 8.58506 14.1873 8.63479 14.2758 8.72331C14.3643 8.81183 14.4141 8.93189 14.4141 9.05709V12.3836C14.4141 12.4318 14.4274 12.479 14.4524 12.5201C14.4775 12.5612 14.5134 12.5947 14.5562 12.6168C14.599 12.6388 14.647 12.6487 14.695 12.6453C14.7431 12.6419 14.7892 12.6253 14.8285 12.5974C15.2747 12.2798 15.6569 11.8105 16.0085 11.283C16.4509 10.6195 16.9908 9.52263 17.2616 8.95339C17.314 8.84312 17.3966 8.74997 17.4999 8.68475C17.6031 8.61953 17.7227 8.58491 17.8448 8.58492H19.5646C19.6364 8.58489 19.707 8.6032 19.7698 8.63811C19.8325 8.67302 19.8853 8.72339 19.9232 8.78442C19.961 8.84546 19.9826 8.91515 19.986 8.98688C19.9893 9.05861 19.9743 9.13002 19.9424 9.19432C19.5084 10.0648 18.6631 11.6616 17.8677 12.5985C17.7539 12.7332 17.6981 12.9076 17.7127 13.0834C17.7273 13.2592 17.8111 13.422 17.9456 13.5361C18.4641 13.9791 19.2735 14.7981 20.1461 16.1622C20.1943 16.2369 20.2214 16.3232 20.2247 16.4119C20.228 16.5007 20.2073 16.5887 20.1648 16.6668C20.1223 16.7448 20.0595 16.8099 19.9832 16.8553C19.9068 16.9007 19.8196 16.9246 19.7307 16.9247Z" fill="black"/>
</svg>
