<svg width="25" height="26" viewBox="0 0 25 26" fill="none" xmlns="http://www.w3.org/2000/svg">
<path d="M14.5517 12.7548L11.3272 10.9122V14.5974L14.5517 12.7548Z" fill="black"/>
<path fill-rule="evenodd" clip-rule="evenodd" d="M0.271484 12.7548C0.271484 5.97048 5.77126 0.470703 12.5556 0.470703C19.3399 0.470703 24.8397 5.97048 24.8397 12.7548C24.8397 19.5391 19.3399 25.0389 12.5556 25.0389C5.77126 25.0389 0.271484 19.5391 0.271484 12.7548ZM17.3157 8.68569C17.8531 8.83924 18.237 9.22311 18.3905 9.76054C18.6976 10.7586 18.6976 12.7548 18.6976 12.7548C18.6976 12.7548 18.6976 14.751 18.4673 15.749C18.3137 16.2865 17.9298 16.6703 17.3924 16.8239C16.3943 17.0542 12.5556 17.0542 12.5556 17.0542C12.5556 17.0542 8.64001 17.0542 7.71871 16.8239C7.18128 16.6703 6.79741 16.2865 6.64386 15.749C6.41353 14.751 6.41353 12.7548 6.41353 12.7548C6.41353 12.7548 6.41352 10.7586 6.56708 9.76054C6.72063 9.22311 7.10451 8.83924 7.64194 8.68569C8.64002 8.45536 12.4788 8.45536 12.4788 8.45536C12.4788 8.45536 16.3944 8.45536 17.3157 8.68569Z" fill="black"/>
</svg>
