<svg width="26" height="29" viewBox="0 0 26 29" fill="none" xmlns="http://www.w3.org/2000/svg">
<path d="M25.1447 27.944L22.9494 7.67819C22.9033 7.25394 22.5344 6.93179 22.0943 6.93179H17.968V6.01984C17.968 3.17715 15.582 0.864258 12.6495 0.864258C9.71678 0.864258 7.33079 3.17715 7.33079 6.01984V6.93179H3.2045C2.76441 6.93179 2.39551 7.25394 2.34945 7.67819L0.154082 27.944C0.128739 28.1787 0.207412 28.4131 0.370269 28.5887C0.533346 28.7641 0.76562 28.8643 1.00913 28.8643H24.2895C24.5332 28.8643 24.7655 28.7641 24.9283 28.5887C25.0916 28.4131 25.1701 28.1787 25.1447 27.944ZM9.05015 6.01984C9.05015 4.09616 10.6648 2.53094 12.6495 2.53094C14.634 2.53094 16.2487 4.09616 16.2487 6.01984V6.93179H9.05015V6.01984ZM1.96379 27.1976L3.97868 8.59848H7.33079V10.435C7.33079 10.8951 7.71578 11.2683 8.19047 11.2683C8.66515 11.2683 9.05015 10.8951 9.05015 10.435V8.59848H16.2487V10.435C16.2487 10.8951 16.6337 11.2683 17.1084 11.2683C17.583 11.2683 17.968 10.8951 17.968 10.435V8.59848H21.3201L23.335 27.1976H1.96379Z" fill="white"/>
</svg>
